<svg width="761" height="206" viewBox="0 0 761 206" fill="none" xmlns="http://www.w3.org/2000/svg">
<path d="M45.3525 144.485L0 188.592H127.305L257.793 63.8778L313.489 117.109L284.845 144.485H233.923L187.775 188.592H305.532L436.02 63.8778L472.62 98.8585H576.056V54.7524H491.716L436.02 0L346.907 85.1704L257.793 0L106.618 144.485H45.3525Z" fill="white"/>
<path d="M383.154 190.958V139.158H395.216L416.676 174.382H410.312L431.18 139.158H443.242L443.39 190.958H429.922L429.774 159.656H432.068L416.454 185.852H409.942L393.884 159.656H396.696V190.958H383.154ZM477.659 191.994C470.012 191.994 464.043 189.897 459.751 185.704C455.459 181.51 453.313 175.566 453.313 167.87V139.158H467.965V167.426C467.965 171.866 468.828 175.048 470.555 176.972C472.331 178.896 474.748 179.858 477.807 179.858C480.866 179.858 483.258 178.896 484.985 176.972C486.712 175.048 487.575 171.866 487.575 167.426V139.158H502.005V167.87C502.005 175.566 499.859 181.51 495.567 185.704C491.275 189.897 485.306 191.994 477.659 191.994ZM511.931 190.958V139.158H523.993L552.557 173.642H546.859V139.158H561.215V190.958H549.153L520.589 156.474H526.287V190.958H511.931ZM597.376 191.994C593.281 191.994 589.483 191.352 585.98 190.07C582.527 188.738 579.517 186.863 576.952 184.446C574.436 182.028 572.463 179.192 571.032 175.936C569.601 172.63 568.886 169.004 568.886 165.058C568.886 161.111 569.601 157.51 571.032 154.254C572.463 150.948 574.436 148.087 576.952 145.67C579.517 143.252 582.527 141.402 585.98 140.12C589.483 138.788 593.281 138.122 597.376 138.122C602.161 138.122 606.429 138.96 610.178 140.638C613.977 142.315 617.134 144.732 619.65 147.89L610.326 156.326C608.649 154.352 606.799 152.848 604.776 151.812C602.803 150.776 600.583 150.258 598.116 150.258C595.995 150.258 594.046 150.603 592.27 151.294C590.494 151.984 588.965 152.996 587.682 154.328C586.449 155.61 585.462 157.164 584.722 158.99C584.031 160.815 583.686 162.838 583.686 165.058C583.686 167.278 584.031 169.3 584.722 171.126C585.462 172.951 586.449 174.53 587.682 175.862C588.965 177.144 590.494 178.131 592.27 178.822C594.046 179.512 595.995 179.858 598.116 179.858C600.583 179.858 602.803 179.34 604.776 178.304C606.799 177.268 608.649 175.763 610.326 173.79L619.65 182.226C617.134 185.334 613.977 187.751 610.178 189.478C606.429 191.155 602.161 191.994 597.376 191.994ZM619.1 190.958L641.966 139.158H656.396L679.336 190.958H664.092L646.184 146.336H651.956L634.048 190.958H619.1ZM631.606 180.894L635.38 170.09H660.688L664.462 180.894H631.606ZM696.588 179.488L695.774 163.06L718.048 139.158H734.18L711.98 163.208L703.84 171.718L696.588 179.488ZM683.49 190.958V139.158H697.994V190.958H683.49ZM718.27 190.958L701.398 169.572L710.944 159.36L735.29 190.958H718.27ZM739.504 172.088L736.766 139.158H753.49L750.678 172.088H739.504ZM745.128 191.624C742.661 191.624 740.639 190.859 739.06 189.33C737.481 187.8 736.692 185.975 736.692 183.854C736.692 181.683 737.481 179.882 739.06 178.452C740.639 176.972 742.661 176.232 745.128 176.232C747.595 176.232 749.593 176.972 751.122 178.452C752.701 179.882 753.49 181.683 753.49 183.854C753.49 185.975 752.701 187.8 751.122 189.33C749.593 190.859 747.595 191.624 745.128 191.624Z" fill="white"/>
</svg>
