<svg width="208" height="58" viewBox="0 0 208 58" fill="none" xmlns="http://www.w3.org/2000/svg">
<path d="M11.1253 37.0372L0 48.3433H31.229L63.2387 16.3743L76.9013 30.0196L69.8748 37.0372H57.3832L46.0627 48.3433H74.9495L106.959 16.3743L115.938 25.3412H141.311V14.0351H120.622L106.959 0L85.0989 21.8324L63.2387 0L26.1543 37.0372H11.1253Z" fill="#FF4343"/>
<path d="M95.1117 49.3648V35.3648H98.3717L104.172 44.8848H102.452L108.092 35.3648H111.352L111.392 49.3648H107.752L107.712 40.9048H108.332L104.112 47.9848H102.352L98.0117 40.9048H98.7717V49.3648H95.1117ZM120.654 49.6448C118.587 49.6448 116.974 49.0781 115.814 47.9448C114.654 46.8115 114.074 45.2048 114.074 43.1248V35.3648H118.034V43.0048C118.034 44.2048 118.267 45.0648 118.734 45.5848C119.214 46.1048 119.867 46.3648 120.694 46.3648C121.52 46.3648 122.167 46.1048 122.634 45.5848C123.1 45.0648 123.334 44.2048 123.334 43.0048V35.3648H127.234V43.1248C127.234 45.2048 126.654 46.8115 125.494 47.9448C124.334 49.0781 122.72 49.6448 120.654 49.6448ZM129.916 49.3648V35.3648H133.176L140.896 44.6848H139.356V35.3648H143.236V49.3648H139.976L132.256 40.0448H133.796V49.3648H129.916ZM153.01 49.6448C151.903 49.6448 150.876 49.4715 149.93 49.1248C148.996 48.7648 148.183 48.2581 147.49 47.6048C146.81 46.9515 146.276 46.1848 145.89 45.3048C145.503 44.4115 145.31 43.4315 145.31 42.3648C145.31 41.2981 145.503 40.3248 145.89 39.4448C146.276 38.5515 146.81 37.7781 147.49 37.1248C148.183 36.4715 148.996 35.9715 149.93 35.6248C150.876 35.2648 151.903 35.0848 153.01 35.0848C154.303 35.0848 155.456 35.3115 156.47 35.7648C157.496 36.2181 158.35 36.8715 159.03 37.7248L156.51 40.0048C156.056 39.4715 155.556 39.0648 155.01 38.7848C154.476 38.5048 153.876 38.3648 153.21 38.3648C152.636 38.3648 152.11 38.4581 151.63 38.6448C151.15 38.8315 150.736 39.1048 150.39 39.4648C150.056 39.8115 149.79 40.2315 149.59 40.7248C149.403 41.2181 149.31 41.7648 149.31 42.3648C149.31 42.9648 149.403 43.5115 149.59 44.0048C149.79 44.4981 150.056 44.9248 150.39 45.2848C150.736 45.6315 151.15 45.8981 151.63 46.0848C152.11 46.2715 152.636 46.3648 153.21 46.3648C153.876 46.3648 154.476 46.2248 155.01 45.9448C155.556 45.6648 156.056 45.2581 156.51 44.7248L159.03 47.0048C158.35 47.8448 157.496 48.4981 156.47 48.9648C155.456 49.4181 154.303 49.6448 153.01 49.6448ZM158.881 49.3648L165.061 35.3648H168.961L175.161 49.3648H171.041L166.201 37.3048H167.761L162.921 49.3648H158.881ZM162.261 46.6448L163.281 43.7248H170.121L171.141 46.6448H162.261ZM179.824 46.2648L179.604 41.8248L185.624 35.3648H189.984L183.984 41.8648L181.784 44.1648L179.824 46.2648ZM176.284 49.3648V35.3648H180.204V49.3648H176.284ZM185.684 49.3648L181.124 43.5848L183.704 40.8248L190.284 49.3648H185.684ZM191.423 44.2648L190.683 35.3648H195.203L194.443 44.2648H191.423ZM192.943 49.5448C192.276 49.5448 191.729 49.3381 191.303 48.9248C190.876 48.5115 190.663 48.0181 190.663 47.4448C190.663 46.8581 190.876 46.3715 191.303 45.9848C191.729 45.5848 192.276 45.3848 192.943 45.3848C193.609 45.3848 194.149 45.5848 194.563 45.9848C194.989 46.3715 195.203 46.8581 195.203 47.4448C195.203 48.0181 194.989 48.5115 194.563 48.9248C194.149 49.3381 193.609 49.5448 192.943 49.5448Z" fill="#232323"/>
</svg>
