<svg width="618" height="482" viewBox="0 0 618 482" fill="none" xmlns="http://www.w3.org/2000/svg">
<path d="M617.411 426.235H0V426.544H617.411V426.235Z" fill="#EBEBEB"/>
<path d="M292.653 371.162H54.2211C52.3532 371.159 50.563 370.415 49.2434 369.093C47.9238 367.771 47.1826 365.979 47.1826 364.112V28.9442C47.1989 27.087 47.9472 25.3113 49.2651 24.0027C50.5829 22.6941 52.3639 21.9583 54.2211 21.9551H292.653C294.523 21.9551 296.316 22.6979 297.638 24.0202C298.961 25.3425 299.704 27.1359 299.704 29.0059V364.112C299.704 365.982 298.961 367.775 297.638 369.097C296.316 370.42 294.523 371.162 292.653 371.162ZM54.2211 22.202C52.4351 22.2053 50.7234 22.9171 49.4617 24.1811C48.2 25.4452 47.4913 27.1582 47.4913 28.9442V364.112C47.4913 365.898 48.2 367.611 49.4617 368.875C50.7234 370.139 52.4351 370.85 54.2211 370.854H292.653C294.44 370.85 296.153 370.139 297.417 368.875C298.68 367.612 299.392 365.899 299.395 364.112V28.9442C299.392 27.157 298.68 25.4441 297.417 24.1804C296.153 22.9167 294.44 22.2053 292.653 22.202H54.2211Z" fill="#EBEBEB"/>
<path d="M559.757 371.162H321.313C319.444 371.159 317.653 370.415 316.331 369.094C315.009 367.772 314.265 365.981 314.262 364.112V28.9442C314.282 27.0859 315.033 25.3102 316.353 24.0019C317.672 22.6936 319.455 21.9582 321.313 21.9551H559.757C561.612 21.9615 563.39 22.6987 564.705 24.007C566.02 25.3153 566.767 27.0892 566.783 28.9442V364.112C566.783 365.977 566.044 367.767 564.727 369.089C563.41 370.41 561.623 371.156 559.757 371.162ZM321.313 22.202C319.526 22.2053 317.813 22.9167 316.549 24.1804C315.286 25.4441 314.574 27.157 314.571 28.9442V364.112C314.574 365.899 315.286 367.612 316.549 368.875C317.813 370.139 319.526 370.85 321.313 370.854H559.757C561.544 370.85 563.257 370.139 564.521 368.875C565.784 367.612 566.496 365.899 566.499 364.112V28.9442C566.496 27.157 565.784 25.4441 564.521 24.1804C563.257 22.9167 561.544 22.2053 559.757 22.202H321.313Z" fill="#EBEBEB"/>
<path d="M555.546 437.991H516.562V438.3H555.546V437.991Z" fill="#EBEBEB"/>
<path d="M414.085 434.645H372.83V434.953H414.085V434.645Z" fill="#EBEBEB"/>
<path d="M566.807 449.462H489.718V449.771H566.807V449.462Z" fill="#EBEBEB"/>
<path d="M88.5244 447.388H64.7788V447.697H88.5244V447.388Z" fill="#EBEBEB"/>
<path d="M136.929 447.388H99.5266V447.697H136.929V447.388Z" fill="#EBEBEB"/>
<path d="M301.469 442.177H234.097V442.486H301.469V442.177Z" fill="#EBEBEB"/>
<path d="M336.193 99.9093L265.833 170.282V404.638H512.784V99.9093H336.193Z" fill="white"/>
<path d="M512.784 405.305H265.82C265.643 405.305 265.474 405.235 265.349 405.11C265.224 404.985 265.153 404.815 265.153 404.638V170.282C265.153 170.194 265.171 170.108 265.205 170.027C265.239 169.947 265.288 169.874 265.351 169.813L335.736 99.4278C335.862 99.3057 336.029 99.2352 336.205 99.2302H512.784C512.872 99.2302 512.959 99.2475 513.04 99.281C513.12 99.3145 513.194 99.3636 513.256 99.4255C513.318 99.4874 513.367 99.561 513.4 99.6419C513.434 99.7228 513.451 99.8095 513.451 99.897V404.638C513.451 404.726 513.434 404.813 513.4 404.894C513.367 404.975 513.318 405.048 513.256 405.11C513.194 405.172 513.12 405.221 513.04 405.255C512.959 405.288 512.872 405.305 512.784 405.305ZM266.499 403.984H512.118V100.576H336.477L266.499 170.553V403.984Z" fill="#E0E0E0"/>
<path d="M265.833 170.282L339.662 179.802L336.193 99.9093L265.833 170.282Z" fill="#E6E6E6"/>
<path d="M265.833 170.282H336.193V99.9093L265.833 170.282Z" fill="white"/>
<path d="M336.193 170.936H265.808C265.676 170.937 265.547 170.898 265.437 170.826C265.327 170.753 265.242 170.65 265.19 170.529C265.139 170.408 265.126 170.275 265.152 170.147C265.179 170.019 265.244 169.903 265.339 169.813L335.723 99.4277C335.818 99.3362 335.937 99.2736 336.066 99.2474C336.195 99.2211 336.329 99.2323 336.452 99.2795C336.572 99.3321 336.675 99.4183 336.747 99.5279C336.819 99.6375 336.858 99.7657 336.859 99.897V170.282C336.856 170.456 336.784 170.623 336.66 170.745C336.535 170.868 336.367 170.936 336.193 170.936ZM267.438 169.615H335.538V101.515L267.438 169.615Z" fill="#E0E0E0"/>
<path d="M403.589 271.624L445.573 229.64C446.511 228.702 447.255 227.588 447.763 226.362C448.27 225.136 448.532 223.823 448.532 222.496C448.532 221.169 448.27 219.856 447.763 218.63C447.255 217.404 446.511 216.291 445.573 215.353C444.635 214.415 443.521 213.67 442.295 213.163C441.07 212.655 439.756 212.394 438.429 212.394C437.103 212.394 435.789 212.655 434.563 213.163C433.338 213.67 432.224 214.415 431.286 215.353L389.302 257.337L347.318 215.353C345.423 213.458 342.854 212.394 340.175 212.394C337.495 212.394 334.926 213.458 333.031 215.353C331.137 217.247 330.072 219.817 330.072 222.496C330.072 225.175 331.137 227.745 333.031 229.64L375.015 271.624L333.031 313.607C331.137 315.502 330.072 318.072 330.072 320.751C330.072 323.43 331.137 326 333.031 327.894C334.926 329.789 337.495 330.853 340.175 330.853C342.854 330.853 345.423 329.789 347.318 327.894L389.302 285.91L431.286 327.894C433.18 329.789 435.75 330.853 438.429 330.853C441.109 330.853 443.678 329.789 445.573 327.894C447.467 326 448.532 323.43 448.532 320.751C448.532 318.072 447.467 315.502 445.573 313.607L403.589 271.624Z" fill="#F0F0F0"/>
<path d="M275.365 236.814C272.997 239.18 269.786 240.509 266.438 240.509C263.09 240.509 259.878 239.18 257.51 236.814L216.995 196.287L234.851 178.432L275.365 219.008C277.716 221.374 279.036 224.575 279.036 227.911C279.036 231.247 277.716 234.447 275.365 236.814Z" fill="#F0F0F0"/>
<path d="M216.99 196.366L234.845 178.51L236.496 180.16C238.207 181.871 239.168 184.192 239.168 186.613C239.168 189.033 238.207 191.354 236.496 193.065L231.545 198.016C229.834 199.727 227.513 200.689 225.092 200.689C222.672 200.689 220.351 199.727 218.64 198.016L216.99 196.366Z" fill="#E0E0E0"/>
<path d="M104.602 66.0505C92.3496 78.3153 84.0084 93.9371 80.6327 110.941C77.2571 127.946 78.9985 145.569 85.6368 161.584C92.2751 177.599 103.512 191.286 117.928 200.916C132.344 210.545 149.291 215.685 166.627 215.685C183.963 215.685 200.91 210.545 215.326 200.916C229.742 191.286 240.979 177.599 247.617 161.584C254.255 145.569 255.997 127.946 252.621 110.941C249.245 93.9371 240.904 78.3153 228.652 66.0505C220.51 57.9 210.841 51.4342 200.198 47.0227C189.555 42.6112 178.148 40.3405 166.627 40.3405C155.106 40.3405 143.698 42.6112 133.056 47.0227C122.413 51.4342 112.744 57.9 104.602 66.0505ZM223.589 185.038C212.324 196.302 197.972 203.974 182.348 207.082C166.723 210.189 150.528 208.594 135.81 202.498C121.092 196.401 108.512 186.077 99.6613 172.831C90.8108 159.585 86.0868 144.012 86.0868 128.082C86.0868 112.151 90.8108 96.5781 99.6613 83.3322C108.512 70.0863 121.092 59.7623 135.81 53.6658C150.528 47.5694 166.723 45.9742 182.348 49.082C197.972 52.1898 212.324 59.861 223.589 71.1256C231.069 78.6052 237.002 87.4847 241.05 97.2573C245.098 107.03 247.182 117.504 247.182 128.082C247.182 138.66 245.098 149.134 241.05 158.906C237.002 168.679 231.069 177.558 223.589 185.038Z" fill="#E0E0E0"/>
<path d="M212.71 177.11C212.13 177.109 211.563 176.936 211.081 176.613C210.599 176.29 210.224 175.831 210.002 175.295C209.78 174.759 209.722 174.169 209.834 173.6C209.947 173.031 210.226 172.508 210.636 172.097C222.288 160.412 228.831 144.584 228.831 128.082C228.831 111.58 222.288 95.7514 210.636 84.0666C210.336 83.8005 210.094 83.4761 209.925 83.1132C209.755 82.7503 209.662 82.3566 209.65 81.9563C209.638 81.556 209.709 81.1575 209.856 80.7853C210.004 80.413 210.227 80.0749 210.51 79.7917C210.793 79.5085 211.131 79.2862 211.503 79.1384C211.875 78.9906 212.274 78.9205 212.674 78.9322C213.075 78.944 213.468 79.0375 213.831 79.2069C214.194 79.3764 214.519 79.6182 214.785 79.9176C227.537 92.7004 234.699 110.019 234.699 128.076C234.699 146.132 227.537 163.451 214.785 176.234C214.513 176.509 214.191 176.728 213.835 176.879C213.479 177.029 213.096 177.108 212.71 177.11Z" fill="#E0E0E0"/>
<path d="M103.207 146.092C102.546 146.092 101.904 145.869 101.386 145.459C100.869 145.049 100.505 144.475 100.354 143.832C98.2183 134.787 97.9489 125.401 99.5625 116.249C101.176 107.096 104.639 98.3682 109.739 90.5988C110.168 89.9438 110.839 89.4861 111.606 89.3263C112.373 89.1665 113.171 89.3178 113.826 89.7468C114.481 90.1758 114.939 90.8474 115.099 91.6139C115.258 92.3805 115.107 93.179 114.678 93.834C110.009 100.931 106.834 108.906 105.348 117.27C103.862 125.635 104.095 134.215 106.034 142.486C106.126 142.861 106.142 143.25 106.083 143.631C106.023 144.012 105.888 144.377 105.686 144.706C105.483 145.034 105.218 145.319 104.905 145.545C104.592 145.77 104.237 145.931 103.861 146.018C103.646 146.064 103.427 146.089 103.207 146.092Z" fill="#E0E0E0"/>
<path d="M120.543 177.11C119.765 177.108 119.018 176.798 118.469 176.246C113.179 170.977 108.798 164.868 105.503 158.168C105.333 157.823 105.232 157.447 105.207 157.063C105.182 156.679 105.233 156.293 105.357 155.929C105.481 155.564 105.675 155.227 105.929 154.938C106.183 154.648 106.491 154.412 106.837 154.241C107.182 154.071 107.558 153.971 107.942 153.945C108.326 153.92 108.712 153.971 109.076 154.095C109.441 154.219 109.778 154.413 110.067 154.667C110.357 154.921 110.593 155.23 110.763 155.575C113.784 161.694 117.789 167.275 122.618 172.097C123.167 172.648 123.475 173.394 123.475 174.171C123.475 174.949 123.167 175.695 122.618 176.246C122.066 176.794 121.321 177.104 120.543 177.11Z" fill="#E0E0E0"/>
<path d="M260.588 349.683L272.131 361.226L245.325 388.032C243.954 389.403 242.095 390.173 240.156 390.173C238.217 390.173 236.358 389.403 234.987 388.032L233.773 386.818C232.402 385.447 231.632 383.588 231.632 381.649C231.632 379.71 232.402 377.851 233.773 376.48L260.579 349.674L260.588 349.683Z" fill="#F0F0F0"/>
<path d="M260.605 349.708L272.131 361.233L271.581 361.783C270.337 363.027 268.651 363.725 266.892 363.725C265.133 363.725 263.447 363.027 262.203 361.783L260.038 359.618C258.794 358.374 258.096 356.688 258.096 354.929C258.096 353.17 258.794 351.484 260.038 350.24L260.588 349.69L260.605 349.708Z" fill="#E0E0E0"/>
<path d="M351.121 287.071L324.079 314.101C321.077 317.318 319.442 321.575 319.52 325.974C319.597 330.373 321.38 334.57 324.493 337.679C327.605 340.789 331.804 342.568 336.203 342.64C340.602 342.713 344.857 341.074 348.071 338.069L359.012 327.141C361.315 313.27 358.512 299.034 351.121 287.071Z" fill="#F0F0F0"/>
<path d="M361.308 313.151C360.534 301.957 356.457 291.244 349.594 282.367C342.73 273.49 333.388 266.848 322.75 263.281C312.111 259.714 300.654 259.382 289.826 262.327C278.999 265.273 269.288 271.362 261.923 279.827C254.557 288.292 249.866 298.75 248.445 309.881C247.024 321.011 248.935 332.313 253.938 342.357C258.94 352.401 266.809 360.735 276.549 366.307C286.289 371.878 297.462 374.436 308.656 373.657C323.66 372.612 337.636 365.652 347.509 354.305C357.383 342.959 362.347 328.156 361.308 313.151ZM252.755 320.708C252.04 310.431 254.388 300.173 259.503 291.23C264.618 282.288 272.27 275.064 281.491 270.47C290.712 265.877 301.088 264.121 311.307 265.425C321.526 266.729 331.129 271.035 338.901 277.796C346.673 284.558 352.265 293.473 354.971 303.413C357.676 313.353 357.373 323.872 354.1 333.64C350.827 343.408 344.731 351.986 336.582 358.289C328.434 364.592 318.599 368.337 308.322 369.051C294.543 370.008 280.948 365.452 270.528 356.386C260.107 347.32 253.714 334.487 252.755 320.708Z" fill="#E0E0E0"/>
<path d="M275.834 350.306C271.464 346.518 267.885 341.904 265.302 336.73C262.719 331.555 261.183 325.922 260.782 320.152C260.754 319.897 260.777 319.639 260.851 319.393C260.925 319.147 261.048 318.919 261.212 318.722C261.377 318.525 261.579 318.364 261.808 318.247C262.036 318.131 262.286 318.061 262.542 318.044C262.798 318.026 263.055 318.061 263.297 318.145C263.54 318.23 263.762 318.362 263.952 318.535C264.142 318.708 264.295 318.917 264.401 319.15C264.508 319.384 264.566 319.636 264.573 319.893C265.33 330.526 270.268 340.427 278.308 347.428C286.348 354.428 296.834 357.959 307.471 357.246C307.972 357.212 308.466 357.378 308.844 357.708C309.223 358.038 309.455 358.505 309.49 359.006C309.524 359.507 309.358 360.001 309.028 360.38C308.698 360.758 308.231 360.99 307.73 361.025C301.97 361.425 296.187 360.684 290.714 358.845C285.24 357.005 280.184 354.104 275.834 350.306Z" fill="#E0E0E0"/>
<path d="M344.071 307.199C343.789 306.955 343.587 306.632 343.49 306.273C342.004 300.988 339.455 296.061 336.001 291.794C332.547 287.526 328.259 284.008 323.4 281.453C322.975 281.208 322.661 280.809 322.523 280.338C322.385 279.868 322.435 279.362 322.661 278.927C322.887 278.492 323.273 278.161 323.737 278.004C324.202 277.846 324.709 277.874 325.153 278.082C330.472 280.878 335.165 284.73 338.947 289.4C342.728 294.071 345.517 299.463 347.145 305.248C347.213 305.488 347.232 305.739 347.202 305.986C347.172 306.234 347.094 306.473 346.971 306.69C346.848 306.907 346.683 307.097 346.487 307.25C346.29 307.403 346.065 307.516 345.824 307.582C345.523 307.665 345.206 307.674 344.9 307.607C344.595 307.54 344.31 307.4 344.071 307.199Z" fill="#E0E0E0"/>
<path d="M300.543 276.489C300.166 276.153 299.935 275.683 299.901 275.18C299.867 274.679 300.032 274.185 300.361 273.806C300.689 273.427 301.154 273.193 301.655 273.155C306.471 272.82 311.309 273.275 315.978 274.501C316.222 274.565 316.45 274.676 316.65 274.828C316.85 274.981 317.019 275.171 317.145 275.388C317.272 275.605 317.355 275.846 317.389 276.095C317.423 276.344 317.407 276.597 317.343 276.841C317.279 277.084 317.168 277.312 317.015 277.512C316.863 277.713 316.673 277.881 316.456 278.008C316.238 278.134 315.998 278.217 315.749 278.251C315.5 278.285 315.246 278.269 315.003 278.205C310.742 277.078 306.323 276.661 301.926 276.97C301.42 276.995 300.924 276.823 300.543 276.489Z" fill="#E0E0E0"/>
<path d="M308.705 482C440.933 482 548.125 475.742 548.125 468.022C548.125 460.302 440.933 454.044 308.705 454.044C176.477 454.044 69.2856 460.302 69.2856 468.022C69.2856 475.742 176.477 482 308.705 482Z" fill="#F5F5F5"/>
<path d="M170.183 134.176C160.23 144.19 177.148 159.736 165.972 166.874C175.098 171.455 207.08 177.271 215.365 159.255C209.327 154.563 213.525 143.029 207.956 131.953C199.621 115.53 160.23 122.803 170.183 134.176Z" fill="#232323"/>
<path d="M171.084 133.916C167.985 133.398 157.501 138.609 165.306 152.599C171.591 163.91 166.355 164.713 166.355 164.713C166.355 164.713 172.529 164.886 168.825 156.477C164.898 147.499 163.058 138.189 171.084 133.916Z" fill="#232323"/>
<path d="M244.494 222.749C244.112 222.051 243.471 221.53 242.709 221.299C241.947 221.068 241.125 221.145 240.419 221.515L239.691 221.897C239.456 222.021 239.012 222.317 238.654 222.527C238.295 222.737 237.876 222.972 237.48 223.169C236.702 223.561 235.897 223.899 235.073 224.182C233.546 224.735 231.941 225.039 230.318 225.083C228.828 225.101 227.345 224.863 225.935 224.379C225.039 224.047 224.175 223.634 223.354 223.145C222.292 220.798 221.28 218.428 220.415 215.983C219.366 213.13 218.44 210.216 217.625 207.265C216.81 204.314 216.093 201.325 215.501 198.325C215.192 196.831 214.92 195.324 214.673 193.83L214.34 191.595C214.229 190.879 214.13 190.064 214.068 189.496V189.249C213.904 187.611 213.097 186.106 211.823 185.064C210.55 184.022 208.914 183.528 207.277 183.692C205.639 183.856 204.134 184.663 203.092 185.937C202.05 187.211 201.556 188.846 201.72 190.484C201.806 191.533 201.881 192.336 201.992 193.213C202.103 194.089 202.226 194.929 202.35 195.781C202.621 197.485 202.93 199.164 203.276 200.844C203.962 204.181 204.828 207.478 205.869 210.722C206.351 212.352 206.943 213.958 207.499 215.575C208.055 217.193 208.734 218.773 209.438 220.342C210.785 223.51 212.315 226.598 214.019 229.59L214.167 229.862C214.61 230.666 215.274 231.326 216.081 231.764C218.415 233.036 220.937 233.928 223.552 234.406C226.237 234.881 228.989 234.822 231.652 234.233C235.41 233.362 238.862 231.488 241.642 228.812C242.099 228.393 242.531 227.96 242.877 227.504C243.222 227.047 243.642 226.614 244.111 225.972C244.473 225.526 244.702 224.987 244.769 224.416C244.837 223.846 244.742 223.268 244.494 222.749Z" fill="#FF8B7B"/>
<path d="M252.706 211.191H252.348C251.166 211.166 249.994 211.414 248.924 211.915C247.853 212.416 246.912 213.157 246.174 214.081L240.21 221.564V226.676C245.001 228.578 251.076 223.453 251.076 223.453L254.151 222.675C255.186 222.417 256.088 221.784 256.684 220.899C257.279 220.014 257.525 218.94 257.374 217.884L256.929 214.884C256.785 213.864 256.278 212.931 255.503 212.253C254.728 211.576 253.736 211.199 252.706 211.191Z" fill="#FF8B7B"/>
<path d="M213.908 182.334C217.896 186.433 218.143 198.67 218.143 198.67L202.189 211.513C202.189 211.513 195.632 193.361 199.263 186.952C202.338 181.519 208.82 177.111 213.908 182.334Z" fill="#FF4343"/>
<g opacity="0.2">
<path d="M213.908 182.334C217.896 186.433 218.143 198.67 218.143 198.67L202.189 211.513C202.189 211.513 195.632 193.361 199.263 186.952C202.337 181.519 208.82 177.111 213.908 182.334Z" fill="white"/>
</g>
<path d="M187.507 457.44L196.324 458.403L197.534 434.447L188.717 433.472L187.507 457.44Z" fill="#FF8B7B"/>
<path d="M197.769 452.648H187.409C187.2 452.642 186.997 452.716 186.842 452.857C186.688 452.998 186.594 453.193 186.582 453.402L185.89 463.194C185.89 463.706 186.09 464.198 186.448 464.565C186.805 464.932 187.292 465.144 187.804 465.157C192.175 465.157 192.225 465.157 197.683 465.157H212.389C216.909 465.157 216.921 460.576 214.97 460.156C206.191 458.304 202.77 455.735 199.671 453.29C199.126 452.871 198.457 452.645 197.769 452.648Z" fill="#232323"/>
<path opacity="0.2" d="M197.534 434.459L196.904 446.808H188.038L188.717 433.484L197.534 434.459Z" fill="black"/>
<path d="M202.288 243.322C202.288 243.322 209.919 307.199 209.919 335.6C203.906 375.114 198.806 444.462 198.806 444.462L186.606 444.14C186.606 444.14 181.062 368.619 186.198 336.007C179.617 306.791 171.492 239.37 171.492 239.37L202.288 243.322Z" fill="#232323"/>
<path opacity="0.2" d="M178.765 261.103C177.311 261.743 175.9 262.477 174.542 263.301C176.221 275.908 178.431 291.776 180.778 306.421C184.778 294.369 182.617 267.87 178.765 261.103Z" fill="black"/>
<path d="M92.031 435.2L99.3041 440.275L111.85 419.827L104.577 414.752L92.031 435.2Z" fill="#FF8B7B"/>
<path d="M101.144 437.596L94.9701 429.286C94.8525 429.115 94.6729 428.998 94.4697 428.959C94.2665 428.919 94.056 428.961 93.8835 429.076L85.6102 434.385C85.1974 434.689 84.9208 435.143 84.8399 435.649C84.759 436.155 84.8805 436.672 85.178 437.09C87.7588 440.609 87.8082 440.634 91.0557 445.005C93.0685 447.684 97.0817 453.081 99.8477 456.797C102.614 460.514 106.232 457.699 105.392 455.871C101.688 447.734 101.688 443.523 101.762 439.522C101.774 438.83 101.557 438.152 101.144 437.596Z" fill="#232323"/>
<path opacity="0.2" d="M111.837 419.827L105.379 430.372L97.5876 426.124L104.577 414.752L111.837 419.827Z" fill="black"/>
<path d="M136.645 443.77C130.335 443.77 117.197 443.77 116.975 434.484C116.802 427.199 125.816 424.173 133.595 423.803C134.457 423.761 135.319 423.89 136.131 424.182C136.943 424.473 137.69 424.922 138.329 425.502C138.967 426.082 139.486 426.783 139.854 427.563C140.221 428.344 140.432 429.189 140.473 430.051V430.545C149.29 430.125 154.995 428.199 157.082 424.914C161.786 417.505 152.772 398.378 144.067 379.893C133.818 358.148 122.21 333.513 121.988 309.915C121.98 309.053 122.142 308.197 122.464 307.397C122.787 306.597 123.264 305.868 123.868 305.252C124.473 304.636 125.192 304.146 125.986 303.808C126.78 303.47 127.633 303.292 128.495 303.284C130.226 303.288 131.886 303.972 133.115 305.19C134.345 306.408 135.045 308.061 135.065 309.792C135.262 330.512 146.178 353.764 155.884 374.287C166.997 397.97 176.691 418.431 168.109 431.953C163.132 439.905 152.821 443.77 136.645 443.77Z" fill="#FF4343"/>
<path d="M192.521 242.062C192.521 242.062 171.455 315.065 161.169 341.539C141.239 376.188 108.171 429.211 108.171 429.211L97.6128 423.037C97.6128 423.037 122.309 361.79 138.918 333.266C143.375 303.63 160.231 237.864 160.231 237.864L192.521 242.062Z" fill="#232323"/>
<path d="M103.046 443.56C103.465 444.254 104.111 444.781 104.874 445.054C105.097 445.108 105.331 445.098 105.549 445.026C105.767 444.954 105.961 444.823 106.109 444.647C106.211 444.552 106.29 444.435 106.337 444.303C106.384 444.172 106.399 444.032 106.38 443.894C106.232 442.412 102.404 440.485 101.639 440.115C101.594 440.097 101.544 440.096 101.499 440.111C101.453 440.127 101.415 440.159 101.392 440.201C101.362 440.247 101.346 440.301 101.346 440.356C101.346 440.411 101.362 440.464 101.392 440.51C101.845 441.577 102.399 442.598 103.046 443.56ZM105.676 443.56C105.785 443.696 105.857 443.858 105.886 444.029C105.892 444.077 105.886 444.126 105.869 444.171C105.852 444.216 105.824 444.257 105.788 444.289C105.688 444.402 105.56 444.487 105.417 444.535C105.274 444.582 105.12 444.591 104.973 444.56C104.158 444.4 103.083 443.079 102.046 440.992C103.391 441.618 104.619 442.47 105.676 443.511V443.56Z" fill="#FF4343"/>
<path d="M101.329 440.559L101.403 440.621C102.638 441.3 105.849 441.856 106.553 440.831C106.671 440.644 106.728 440.425 106.717 440.204C106.706 439.983 106.627 439.771 106.491 439.596C105.256 437.411 101.552 439.979 101.391 440.09C101.354 440.12 101.325 440.157 101.306 440.2C101.286 440.243 101.277 440.29 101.28 440.337C101.275 440.414 101.292 440.492 101.329 440.559ZM106.022 439.843C106.058 439.886 106.091 439.932 106.12 439.979C106.256 440.214 106.281 440.387 106.207 440.485C105.799 441.078 103.428 440.868 102.045 440.325C102.972 439.769 105.133 438.645 106.022 439.843Z" fill="#FF4343"/>
<path d="M203.746 454.686C204.555 454.759 205.365 454.555 206.042 454.105C206.214 453.955 206.341 453.76 206.408 453.542C206.476 453.324 206.482 453.092 206.425 452.871C206.407 452.731 206.358 452.597 206.281 452.48C206.204 452.362 206.101 452.263 205.981 452.191C204.746 451.438 200.881 453.352 200.128 453.747C200.085 453.771 200.052 453.808 200.034 453.853C200.016 453.898 200.014 453.948 200.029 453.994C200.048 454.046 200.079 454.092 200.12 454.129C200.161 454.165 200.21 454.191 200.263 454.204C201.405 454.483 202.571 454.645 203.746 454.686ZM205.277 452.55C205.453 452.538 205.628 452.577 205.783 452.661C205.845 452.661 205.907 452.747 205.931 452.895C205.964 453.043 205.955 453.197 205.907 453.34C205.86 453.484 205.774 453.611 205.66 453.71C205.054 454.266 203.35 454.34 201.054 453.933C202.351 453.237 203.759 452.769 205.215 452.55H205.277Z" fill="#FF4343"/>
<path d="M200.263 454.266H200.349C201.584 453.698 203.992 451.438 203.597 450.265C203.515 450.071 203.377 449.906 203.202 449.789C203.026 449.673 202.82 449.611 202.609 449.611C200.14 449.327 199.967 453.797 199.954 453.982C199.955 454.031 199.967 454.079 199.991 454.123C200.015 454.166 200.049 454.202 200.09 454.229C200.143 454.259 200.203 454.271 200.263 454.266ZM202.486 450.068H202.659C202.918 450.068 203.078 450.179 203.116 450.302C203.35 450.981 201.77 452.772 200.498 453.55C200.609 452.475 201.004 450.068 202.51 450.068H202.486Z" fill="#FF4343"/>
<path d="M160.23 237.925L202.288 243.309C211.771 211.377 214.896 195.954 215.735 188.532C215.957 186.667 215.521 184.783 214.502 183.205C213.483 181.627 211.945 180.454 210.154 179.889C207.684 179.098 204.498 178.16 201.337 177.419C200.263 177.135 199.164 176.876 198.09 176.629C191.793 175.351 185.413 174.526 178.999 174.159C178.048 174.073 177.11 174.023 176.159 173.974C174.295 173.875 172.455 173.85 170.775 173.85C169.515 173.849 168.268 174.11 167.114 174.617C165.96 175.124 164.924 175.866 164.073 176.795C163.221 177.724 162.573 178.821 162.168 180.015C161.764 181.209 161.613 182.474 161.724 183.729C162.058 187.434 162.317 190.879 162.514 194.04C162.984 201.449 163.132 207.376 163.021 212.562C162.768 221.077 161.835 229.559 160.23 237.925Z" fill="#FF4343"/>
<g opacity="0.3">
<path d="M160.229 237.925L202.288 243.309C211.771 211.377 214.895 195.954 215.735 188.532C215.957 186.667 215.521 184.783 214.502 183.205C213.483 181.627 211.945 180.454 210.153 179.889C207.684 179.098 204.498 178.16 201.337 177.419C200.262 177.135 199.163 176.876 198.089 176.629C191.793 175.351 185.413 174.526 178.999 174.159C178.048 174.073 177.11 174.023 176.159 173.974C174.294 173.875 172.454 173.85 170.775 173.85C169.514 173.849 168.267 174.11 167.113 174.617C165.959 175.124 164.924 175.866 164.072 176.795C163.221 177.724 162.572 178.821 162.168 180.015C161.763 181.209 161.612 182.474 161.724 183.729C162.057 187.434 162.316 190.879 162.514 194.04C162.983 201.449 163.131 207.376 163.02 212.562C162.768 221.077 161.835 229.559 160.229 237.925Z" fill="white"/>
</g>
<path opacity="0.3" d="M162.996 212.513C168.553 205.326 170.565 197.102 168.763 192.57L162.49 193.978C162.996 201.362 163.132 207.314 162.996 212.513Z" fill="#FF4343"/>
<path d="M201.338 177.345C200.251 177.061 199.165 176.802 198.09 176.555C191.789 175.283 185.405 174.458 178.988 174.085C178.037 174.011 177.098 173.962 176.16 173.912L174.518 173.838L175.752 175.999C175.925 176.295 180.124 183.161 190.57 190.545L192.805 192.101L194.954 190.459C197.023 188.975 198.714 187.024 199.889 184.765C201.065 182.506 201.692 180.002 201.721 177.456L201.338 177.345Z" fill="white"/>
<path d="M183.63 161.391C183.235 166.59 182.013 171.887 178.987 174.11C178.987 174.11 182.84 180.519 192.817 187.52C199.065 182.741 198.09 176.555 198.09 176.555C191.447 174.085 191.916 169.479 194.719 162.132L189.533 159.341C189.085 158.848 188.503 158.498 187.858 158.333C187.212 158.168 186.533 158.197 185.904 158.416C185.275 158.634 184.724 159.033 184.32 159.562C183.916 160.091 183.676 160.727 183.63 161.391Z" fill="#FF8B7B"/>
<path opacity="0.2" d="M189.533 159.341C189.112 158.877 188.572 158.538 187.971 158.362C187.37 158.186 186.732 158.179 186.128 158.342C185.524 158.506 184.976 158.833 184.546 159.289C184.116 159.744 183.821 160.309 183.692 160.922C185.662 164.894 188.839 168.14 192.768 170.195C192.909 167.411 193.566 164.676 194.706 162.132L189.533 159.341Z" fill="black"/>
<path d="M175.555 145.092C178.135 155.131 179.012 159.428 185.149 163.614C194.373 169.961 206.141 164.602 206.598 154.007C207.03 144.462 202.745 129.644 192.027 127.52C189.661 127.036 187.21 127.167 184.909 127.899C182.608 128.631 180.532 129.941 178.88 131.702C177.229 133.464 176.056 135.62 175.474 137.964C174.891 140.308 174.919 142.762 175.555 145.092Z" fill="#FF8B7B"/>
<path d="M201.103 129.595C195.056 134.969 187.884 138.923 180.111 141.165C180.111 141.165 187.779 157.477 173.43 153.365C169.269 139.473 173.43 132.262 177.135 128.866C188.545 125.162 196.571 123.927 201.103 129.595Z" fill="#232323"/>
<path d="M175.073 154.982C175.914 156.801 177.442 158.213 179.321 158.909C181.791 159.798 183.26 157.674 182.729 155.205C182.247 152.994 180.37 149.858 177.79 150.018C177.232 150.066 176.694 150.251 176.224 150.557C175.755 150.863 175.369 151.28 175.1 151.772C174.831 152.263 174.688 152.814 174.683 153.374C174.678 153.934 174.812 154.487 175.073 154.982Z" fill="#FF8B7B"/>
<path d="M159.922 235.382L157.538 238.901C157.353 239.173 157.662 239.518 158.143 239.58L202.251 245.235C202.634 245.235 202.967 245.137 203.029 244.902L203.893 241.198C203.893 240.938 203.647 240.679 203.239 240.617L160.638 235.159C160.509 235.129 160.375 235.134 160.249 235.173C160.124 235.212 160.01 235.284 159.922 235.382Z" fill="#FF4343"/>
<path d="M165.021 240.877L163.885 240.728C163.663 240.728 163.502 240.556 163.54 240.42L164.7 235.592C164.744 235.51 164.815 235.446 164.9 235.41C164.985 235.375 165.08 235.369 165.169 235.394L166.318 235.542C166.54 235.542 166.701 235.703 166.664 235.851L165.503 240.667C165.466 240.815 165.256 240.901 165.021 240.877Z" fill="#232323"/>
<path d="M198.992 245.223L197.855 245.087C197.633 245.087 197.473 244.915 197.51 244.766L198.67 239.951C198.67 239.815 198.917 239.716 199.14 239.741L200.288 239.889C200.51 239.889 200.671 240.062 200.634 240.198L199.473 245.026C199.436 245.161 199.226 245.26 198.992 245.223Z" fill="#232323"/>
<path d="M182.013 243.05L180.877 242.902C180.642 242.902 180.482 242.741 180.519 242.593L181.679 237.777C181.679 237.629 181.926 237.543 182.161 237.567L183.297 237.715C183.519 237.715 183.68 237.888 183.655 238.024L182.482 242.852C182.457 242.988 182.235 243.075 182.013 243.05Z" fill="#232323"/>
<path d="M192.756 144.659C192.904 145.487 193.472 146.079 193.991 145.968C194.509 145.857 194.843 145.116 194.682 144.289C194.521 143.462 193.953 142.869 193.447 142.98C192.941 143.091 192.632 143.832 192.756 144.659Z" fill="#232323"/>
<path d="M202.091 142.869C202.252 143.696 202.82 144.276 203.326 144.178C203.832 144.079 204.178 143.313 204.017 142.486C203.857 141.659 203.289 141.078 202.783 141.177C202.276 141.276 201.943 142.041 202.091 142.869Z" fill="#232323"/>
<path d="M202.51 141.276L204.387 140.313C204.387 140.313 203.745 142.066 202.51 141.276Z" fill="#232323"/>
<path d="M199.621 144.721C200.725 146.461 202.058 148.043 203.585 149.426C203.223 149.81 202.781 150.11 202.29 150.304C201.799 150.499 201.272 150.582 200.745 150.549L199.621 144.721Z" fill="#FF5652"/>
<path d="M193.792 153.883C193.755 153.927 193.734 153.981 193.733 154.038C193.731 154.095 193.749 154.151 193.784 154.196C193.819 154.241 193.868 154.273 193.924 154.285C193.979 154.298 194.038 154.291 194.089 154.266C195.022 153.79 196.054 153.542 197.102 153.542C198.149 153.542 199.182 153.79 200.115 154.266C200.171 154.298 200.237 154.307 200.299 154.291C200.361 154.275 200.415 154.235 200.448 154.18C200.482 154.123 200.493 154.056 200.479 153.992C200.465 153.928 200.428 153.872 200.374 153.834C199.367 153.318 198.252 153.049 197.12 153.049C195.989 153.049 194.874 153.318 193.867 153.834C193.867 153.834 193.867 153.859 193.792 153.883Z" fill="#232323"/>
<path d="M189.532 142.116C189.609 142.069 189.669 142 189.705 141.918C189.963 141.355 190.35 140.861 190.835 140.477C191.32 140.093 191.889 139.829 192.496 139.708C192.561 139.7 192.624 139.68 192.681 139.647C192.738 139.615 192.788 139.572 192.828 139.52C192.869 139.469 192.898 139.409 192.915 139.346C192.932 139.283 192.937 139.217 192.928 139.152C192.922 139.087 192.903 139.025 192.872 138.968C192.841 138.911 192.799 138.861 192.748 138.82C192.698 138.78 192.639 138.75 192.577 138.733C192.514 138.716 192.449 138.711 192.385 138.72C191.613 138.864 190.887 139.19 190.266 139.671C189.645 140.152 189.148 140.774 188.816 141.486C188.768 141.583 188.754 141.694 188.775 141.8C188.796 141.907 188.852 142.003 188.933 142.075C189.015 142.147 189.118 142.189 189.226 142.197C189.334 142.204 189.442 142.176 189.532 142.116Z" fill="#232323"/>
<path d="M204.869 135.855L204.93 135.793C204.968 135.74 204.995 135.68 205.009 135.616C205.023 135.552 205.025 135.486 205.013 135.422C205.002 135.357 204.977 135.296 204.942 135.241C204.907 135.186 204.861 135.139 204.807 135.102C204.169 134.643 203.43 134.343 202.653 134.227C201.875 134.111 201.081 134.182 200.337 134.435C200.218 134.487 200.124 134.582 200.073 134.702C200.022 134.821 200.02 134.956 200.065 135.077C200.115 135.198 200.21 135.295 200.33 135.346C200.451 135.396 200.586 135.398 200.707 135.349C201.299 135.155 201.928 135.105 202.542 135.204C203.156 135.303 203.738 135.547 204.239 135.917C204.334 135.984 204.45 136.015 204.565 136.004C204.681 135.993 204.789 135.94 204.869 135.855Z" fill="#232323"/>
<path d="M193.212 143.066L195.089 142.116C195.089 142.116 194.361 143.857 193.212 143.066Z" fill="#232323"/>
<path d="M128.557 316.423C126.825 316.423 125.164 315.739 123.933 314.521C122.703 313.302 122.004 311.647 121.988 309.915C121.815 292.381 127.655 277.575 138.88 267.104C152.698 254.213 174.245 248.224 199.584 250.224C217.353 251.632 228.75 247.31 241.938 242.284C244.111 241.469 246.297 240.63 248.544 239.815C250.182 239.219 251.989 239.297 253.568 240.034C255.148 240.77 256.37 242.104 256.966 243.741C257.562 245.379 257.483 247.186 256.747 248.765C256.01 250.345 254.677 251.567 253.039 252.163C250.854 252.953 248.73 253.768 246.618 254.571C233.171 259.683 219.279 264.956 198.547 263.326C176.937 261.609 158.933 266.363 147.845 276.711C139.201 284.713 134.99 295.838 135.126 309.792C135.134 310.655 134.972 311.51 134.65 312.311C134.327 313.111 133.85 313.84 133.246 314.455C132.641 315.071 131.922 315.562 131.128 315.899C130.334 316.237 129.481 316.415 128.619 316.423H128.557Z" fill="#FF4343"/>
<path d="M280.484 261.438L254.059 271.119C251.855 271.926 249.419 271.825 247.289 270.837C245.159 269.849 243.508 268.056 242.701 265.851L231.788 236.064C230.981 233.859 231.082 231.424 232.07 229.294C233.058 227.163 234.851 225.513 237.056 224.705L263.48 215.025L280.471 261.403L280.484 261.438Z" fill="#FF4343"/>
<path opacity="0.7" d="M280.484 261.438L254.059 271.119C251.855 271.926 249.419 271.825 247.289 270.837C245.159 269.849 243.508 268.056 242.701 265.851L231.788 236.064C230.981 233.859 231.082 231.424 232.07 229.294C233.058 227.163 234.851 225.513 237.056 224.705L263.48 215.025L280.471 261.403L280.484 261.438Z" fill="white"/>
<path opacity="0.2" d="M251.706 219.329L263.498 215.019L280.489 261.424L268.697 265.746C267.912 264.987 267.312 264.057 266.944 263.029L252.126 222.539C251.738 221.516 251.594 220.417 251.706 219.329Z" fill="#FF4343"/>
<path d="M289.98 226.578L288.821 227.003L291.65 234.725L292.809 234.3L289.98 226.578Z" fill="#FF4343"/>
<path d="M287.034 222.194L282.873 210.809C282.159 208.878 280.871 207.212 279.182 206.036C277.494 204.859 275.485 204.228 273.427 204.227C272.256 204.224 271.093 204.429 269.994 204.832L262.486 207.586L262.054 206.425L269.574 203.671C270.808 203.219 272.112 202.989 273.427 202.992C275.739 202.998 277.995 203.71 279.891 205.035C281.787 206.359 283.233 208.232 284.034 210.401L288.195 221.786L287.034 222.194Z" fill="#FF4343"/>
<path d="M280.689 264.764L291.716 260.776C295.319 259.472 297.183 255.495 295.88 251.893L280.912 210.513C279.609 206.91 275.632 205.046 272.03 206.349L261.003 210.337C257.4 211.64 255.536 215.617 256.839 219.22L271.806 260.6C273.109 264.203 277.086 266.067 280.689 264.764Z" fill="#FF4343"/>
<path d="M274.377 223.07C274.629 223.759 274.671 224.507 274.497 225.219C274.324 225.931 273.943 226.576 273.403 227.072C272.863 227.568 272.188 227.892 271.463 228.004C270.739 228.116 269.997 228.01 269.333 227.7C268.668 227.391 268.111 226.891 267.73 226.264C267.35 225.637 267.165 224.911 267.197 224.179C267.229 223.447 267.478 222.74 267.912 222.15C268.346 221.559 268.946 221.11 269.635 220.86C270.557 220.526 271.574 220.571 272.463 220.985C273.352 221.4 274.04 222.149 274.377 223.07Z" fill="#232323"/>
<path d="M283.602 248.248C283.852 248.937 283.893 249.684 283.72 250.395C283.546 251.107 283.165 251.751 282.626 252.246C282.086 252.741 281.412 253.066 280.688 253.178C279.964 253.29 279.223 253.185 278.559 252.876C277.895 252.567 277.337 252.068 276.957 251.443C276.576 250.817 276.389 250.093 276.42 249.361C276.451 248.629 276.698 247.923 277.13 247.331C277.562 246.74 278.16 246.29 278.847 246.038C279.305 245.871 279.791 245.795 280.277 245.816C280.764 245.836 281.241 245.952 281.683 246.158C282.124 246.363 282.521 246.653 282.85 247.012C283.18 247.371 283.435 247.791 283.602 248.248Z" fill="#232323"/>
<path d="M175.345 245.273L175.246 245.161C173.32 243.235 171.282 241.136 169.442 238.987C167.602 236.839 165.8 234.69 164.157 232.467C162.547 230.299 161.083 228.026 159.774 225.664C158.837 223.974 158.04 222.21 157.39 220.391C158.131 217.921 158.922 215.452 159.86 213.081C160.934 210.228 162.145 207.425 163.466 204.659C164.787 201.893 166.195 199.177 167.714 196.522C168.454 195.188 169.232 193.867 170.035 192.57L171.27 190.669C171.653 190.051 172.11 189.434 172.431 188.903L172.566 188.705C173.444 187.367 173.768 185.741 173.47 184.169C173.172 182.596 172.275 181.201 170.969 180.278C169.662 179.354 168.048 178.973 166.466 179.216C164.885 179.459 163.459 180.307 162.49 181.58C161.873 182.42 161.404 183.087 160.91 183.816C160.416 184.544 159.971 185.273 159.502 186.001C158.601 187.458 157.724 188.928 156.884 190.422C155.214 193.403 153.701 196.469 152.352 199.609C151.661 201.165 151.118 202.758 150.414 204.351C149.71 205.944 149.241 207.561 148.747 209.216C147.699 212.494 146.837 215.83 146.166 219.205V219.489C145.974 220.391 146.038 221.327 146.351 222.194C147.548 225.36 149.136 228.363 151.081 231.134C152.911 233.764 154.951 236.241 157.181 238.543C159.352 240.76 161.657 242.843 164.083 244.779C166.508 246.712 169.053 248.489 171.702 250.101C172.345 250.477 173.104 250.606 173.835 250.463C174.567 250.32 175.221 249.915 175.675 249.324C176.13 248.734 176.353 247.997 176.304 247.254C176.254 246.51 175.935 245.81 175.406 245.285L175.345 245.273Z" fill="#FF8B7B"/>
<path d="M189.693 251.41L189.533 251.089C189.02 250.018 188.266 249.082 187.329 248.354C186.393 247.625 185.3 247.124 184.136 246.89L174.764 244.989L170.183 247.273C170.677 252.41 178.012 255.485 178.012 255.485L180.098 257.868C180.802 258.667 181.776 259.178 182.833 259.303C183.891 259.429 184.957 259.159 185.828 258.547L188.298 256.781C189.128 256.195 189.723 255.334 189.979 254.351C190.234 253.367 190.133 252.325 189.693 251.41Z" fill="#FF8B7B"/>
<path d="M166.935 174.641C161.737 177.024 156.205 185.273 156.205 185.273L167.318 206.079C167.318 206.079 179.95 191.521 178.888 184.235C178.024 178.049 173.554 171.603 166.935 174.641Z" fill="#FF4343"/>
<g opacity="0.3">
<path d="M166.935 174.641C161.736 177.024 156.204 185.273 156.204 185.273L167.317 206.079C167.317 206.079 179.95 191.521 178.888 184.235C178.023 178.049 173.553 171.603 166.935 174.641Z" fill="white"/>
</g>
<path d="M522.687 447.265C511.808 447.265 501.115 445.03 495.929 438.263C471.38 406.157 471.603 341.576 471.813 279.082C471.936 245.433 474.591 213.636 470.849 188.94C468.651 174.381 460.971 164.392 453.216 159.23C441.708 151.624 425.902 155.711 419.148 157.452C418.306 157.687 417.426 157.752 416.56 157.643C415.693 157.534 414.857 157.253 414.1 156.817C413.343 156.381 412.68 155.798 412.152 155.103C411.623 154.407 411.238 153.614 411.019 152.768C410.801 151.922 410.753 151.041 410.879 150.177C411.006 149.312 411.303 148.482 411.754 147.733C412.205 146.985 412.801 146.335 413.506 145.819C414.212 145.304 415.013 144.935 415.863 144.733C424.297 142.548 444.079 137.448 460.452 148.265C471.504 155.563 481.061 168.59 483.84 186.977C487.729 212.661 485.075 244.927 484.951 279.082C484.741 339.378 484.531 401.724 506.363 430.236C508.129 432.533 515.007 434.595 526.429 434.003C527.441 434.003 528.429 433.891 529.405 433.805C528.963 432.911 528.734 431.926 528.738 430.928C528.738 429.186 529.43 427.515 530.662 426.283C531.894 425.051 533.565 424.359 535.307 424.359C549.668 424.359 557.225 425.593 558.682 432.163C559.102 434.052 559.324 438.794 552.385 442.041C547.198 444.474 534.826 447.265 522.687 447.265Z" fill="#FF4343"/>
<path d="M378.929 452.932L365.531 447.66L372.594 424.433L386.004 429.693L378.929 452.932Z" fill="#FFC3BD"/>
<path d="M365.21 446.24L380.325 452.167C380.516 452.245 380.676 452.384 380.779 452.563C380.881 452.742 380.922 452.95 380.893 453.155L379.411 462.564C379.372 462.791 379.283 463.007 379.15 463.196C379.017 463.384 378.843 463.54 378.642 463.653C378.441 463.766 378.217 463.831 377.986 463.846C377.756 463.861 377.526 463.823 377.312 463.737C373.521 462.169 367.581 459.576 362.778 457.686C359.827 456.526 354.208 454.673 350.121 453.068C346.034 451.463 347.096 447.215 348.886 447.511C357.024 448.82 360.135 447.425 363.383 446.215C363.973 445.989 364.627 445.998 365.21 446.24Z" fill="#232323"/>
<path opacity="0.2" d="M386.005 429.705L372.595 424.433L368.952 436.411L382.362 441.683L386.005 429.705Z" fill="black"/>
<path d="M402.761 249.915C402.761 249.915 390.635 309.854 386.005 339.415C380.794 372.545 367.025 433.064 367.025 433.064L384.844 440.065C384.844 440.065 410.294 378.102 413.837 348.096C424.519 323.708 445.758 251.941 445.758 251.941L402.761 249.915Z" fill="#FF4343"/>
<path d="M366.161 433.163L385.721 440.856L389.067 434.929L367.198 425.865L366.161 433.163Z" fill="#232323"/>
<path d="M361.37 446.499C360.688 446.286 360.096 445.852 359.69 445.264C359.578 445.047 359.519 444.805 359.519 444.56C359.519 444.315 359.578 444.074 359.69 443.856C359.74 443.722 359.827 443.605 359.941 443.518C360.054 443.43 360.19 443.376 360.332 443.362C361.629 443.227 364.037 446.388 364.271 446.758C364.298 446.798 364.312 446.846 364.312 446.894C364.312 446.942 364.298 446.99 364.271 447.03C364.245 447.07 364.208 447.103 364.164 447.122C364.121 447.142 364.072 447.148 364.024 447.141C363.119 447.024 362.229 446.809 361.37 446.499ZM360.715 443.918C360.616 443.869 360.505 443.848 360.394 443.856C360.32 443.856 360.233 443.856 360.147 444.066C360.065 444.213 360.022 444.379 360.022 444.548C360.022 444.716 360.065 444.882 360.147 445.029C360.505 445.684 361.74 446.264 363.53 446.561C362.778 445.5 361.821 444.601 360.715 443.918Z" fill="#FF4343"/>
<path d="M364 447.129C363.96 447.115 363.926 447.089 363.902 447.055C363.111 446.116 362 443.214 362.667 442.214C362.77 442.059 362.923 441.944 363.1 441.888C363.277 441.831 363.469 441.838 363.642 441.905C363.826 441.952 363.997 442.037 364.146 442.154C364.295 442.271 364.418 442.417 364.507 442.585C365.272 443.955 364.408 446.845 364.371 446.968C364.356 447.012 364.33 447.051 364.295 447.081C364.261 447.112 364.219 447.132 364.173 447.141C364.146 447.154 364.116 447.16 364.085 447.158C364.055 447.156 364.026 447.146 364 447.129ZM363.581 442.412H363.482C363.161 442.338 363.087 442.412 363.05 442.523C362.679 443.116 363.284 445.215 363.988 446.363C364.34 445.221 364.34 443.999 363.988 442.856C363.91 442.664 363.765 442.506 363.581 442.412Z" fill="#FF4343"/>
<path opacity="0.2" d="M428.902 286.207C422.185 294.529 419.53 315.744 419.555 333.426C424.087 320.942 429.285 305.087 433.854 290.689L428.902 286.207Z" fill="black"/>
<path d="M459.563 455.167H445.165L443.251 430.965H457.649L459.563 455.167Z" fill="#FFC3BD"/>
<path d="M444.35 453.957H460.588C460.796 453.956 460.998 454.026 461.16 454.157C461.322 454.287 461.434 454.47 461.477 454.673L463.539 463.959C463.587 464.186 463.584 464.421 463.529 464.646C463.474 464.871 463.369 465.081 463.222 465.26C463.075 465.439 462.89 465.583 462.679 465.681C462.469 465.778 462.24 465.827 462.008 465.824C457.908 465.75 451.45 465.503 446.289 465.503C443.103 465.503 437.2 465.836 432.817 465.836C428.433 465.836 427.877 461.502 429.643 461.107C437.707 459.341 440.102 456.921 442.671 454.599C443.133 454.188 443.731 453.96 444.35 453.957Z" fill="#232323"/>
<path opacity="0.2" d="M457.649 430.965H443.239L444.239 443.449H458.649L457.649 430.965Z" fill="black"/>
<path d="M420.197 250.669C420.197 250.669 428.173 317.46 429.853 341.502C432.187 374.966 441.213 441.029 441.213 441.029H460.353C460.353 441.029 462.403 373.558 458.945 343.54C463.712 317.349 462.205 252.681 462.205 252.681L420.197 250.669Z" fill="#FF4343"/>
<path d="M440.448 441.436H461.464L462.415 434.706L438.744 434.262L440.448 441.436Z" fill="#232323"/>
<path d="M440.831 455.6C440.119 455.653 439.41 455.466 438.818 455.069C438.634 454.907 438.491 454.704 438.401 454.477C438.31 454.249 438.276 454.003 438.299 453.76C438.299 453.614 438.34 453.471 438.416 453.347C438.492 453.223 438.601 453.122 438.731 453.056C439.892 452.463 443.263 454.538 443.671 454.772C443.713 454.796 443.748 454.833 443.77 454.877C443.792 454.921 443.8 454.97 443.794 455.019C443.783 455.069 443.759 455.114 443.724 455.151C443.689 455.188 443.645 455.215 443.597 455.229C442.691 455.457 441.764 455.581 440.831 455.6ZM439.275 453.439C439.164 453.432 439.054 453.453 438.954 453.5C438.892 453.5 438.818 453.599 438.805 453.784C438.78 453.951 438.797 454.121 438.855 454.278C438.913 454.436 439.011 454.576 439.139 454.686C439.707 455.167 441.077 455.229 442.843 454.871C441.769 454.171 440.57 453.685 439.312 453.439H439.275Z" fill="#FF4343"/>
<path d="M443.547 455.229H443.424C442.35 454.636 440.25 452.352 440.473 451.179C440.51 450.997 440.609 450.834 440.753 450.716C440.897 450.599 441.077 450.536 441.263 450.537C441.45 450.51 441.64 450.524 441.821 450.577C442.002 450.631 442.17 450.722 442.313 450.845C443.547 451.846 443.782 454.859 443.794 454.982C443.797 455.027 443.788 455.073 443.769 455.114C443.749 455.155 443.72 455.19 443.683 455.217C443.64 455.232 443.593 455.236 443.547 455.229ZM441.436 450.994H441.325C441.004 450.994 440.979 451.191 440.967 451.253C440.831 451.932 442.201 453.723 443.239 454.488C443.164 453.295 442.734 452.151 442.004 451.204C441.843 451.072 441.643 450.998 441.436 450.994Z" fill="#FF4343"/>
<path d="M426.803 158.563L415.27 158.415C411.392 158.415 407.54 158.292 403.724 158.23C402.564 158.23 401.427 158.156 400.279 158.107C400.353 158.107 400.403 157.971 400.464 157.909C401.279 157.045 402.094 156.155 402.934 155.303C403.354 154.859 403.765 154.427 404.169 154.007C404.552 153.587 405.046 153.118 405.305 152.772L406.354 151.438C407.182 150.383 407.656 149.094 407.709 147.754C407.763 146.414 407.393 145.091 406.652 143.974C405.911 142.856 404.837 141.999 403.583 141.526C402.328 141.053 400.956 140.987 399.662 141.338L397.377 141.955C396.673 142.165 395.97 142.4 395.266 142.634C393.883 143.116 392.524 143.647 391.178 144.227C388.466 145.425 385.845 146.82 383.337 148.401C380.739 150.061 378.282 151.932 375.99 153.995C373.564 156.2 371.368 158.645 369.433 161.292C368.945 161.953 368.531 162.665 368.198 163.416C367.052 166.044 366.995 169.021 368.042 171.69C369.088 174.36 371.152 176.505 373.78 177.654L374.903 178.148C377.441 179.239 380.069 180.107 382.757 180.741C385.103 181.346 387.326 181.741 389.511 182.111C391.697 182.482 393.833 182.778 395.957 183.038C398.081 183.297 400.18 183.494 402.279 183.667C406.466 184.038 410.615 184.223 414.751 184.346C418.888 184.47 422.938 184.47 427.235 184.272C430.586 184.129 433.749 182.684 436.049 180.243C438.35 177.803 439.606 174.561 439.552 171.207C439.497 167.854 438.135 164.654 435.756 162.29C433.377 159.926 430.169 158.585 426.815 158.551L426.803 158.563Z" fill="#FFC3BD"/>
<path d="M433.52 181.099C423.555 192.459 399.575 188.211 399.575 188.211L400.896 159.909C409.116 158.1 417.498 157.128 425.914 157.007C439.991 156.983 441.497 171.986 433.52 181.099Z" fill="#232323"/>
<path d="M406.922 172.393C406.33 176.962 405.688 183.112 405.305 191.385C400.106 217.687 398.167 236.32 402.761 249.915C406.391 254.398 453.697 253.533 462.205 252.669C467.145 240.444 467.663 205.351 468.244 175.851C468.316 171.786 466.93 167.829 464.336 164.698C461.742 161.568 458.113 159.47 454.105 158.786C443.459 156.899 432.6 156.533 421.851 157.699C418.079 158.128 414.559 159.809 411.853 162.472C409.147 165.135 407.411 168.628 406.922 172.393Z" fill="#232323"/>
<path opacity="0.2" d="M452.821 190.348C452.981 199.337 459.501 213.698 466.836 220.984C467.28 213.389 467.564 205.153 467.787 196.843L452.821 190.348Z" fill="black"/>
<path d="M494.039 207.82L493.619 206.833C491.893 202.714 489.875 198.723 487.581 194.892C485.383 191.187 483.012 187.693 480.555 184.322C478.098 180.951 475.492 177.728 472.825 174.591C471.467 173.036 470.121 171.48 468.701 169.973L466.564 167.726L464.292 165.429C461.912 163.079 458.711 161.748 455.366 161.718C452.022 161.689 448.797 162.963 446.376 165.27C443.954 167.577 442.526 170.737 442.395 174.079C442.263 177.421 443.439 180.683 445.671 183.173L446.042 183.581L453.29 191.644C455.76 194.386 458.118 197.176 460.464 199.955C461.6 201.35 462.773 202.745 463.835 204.165C464.897 205.585 466.021 206.956 467.083 208.364C468.614 210.5 470.096 212.624 471.417 214.711C471.215 215.764 470.959 216.807 470.652 217.835C469.764 220.826 468.721 223.769 467.527 226.651C466.293 229.701 464.984 232.826 463.625 235.9C462.267 238.975 460.81 242.186 459.513 245.273L459.39 245.544C458.821 246.909 458.735 248.427 459.145 249.847C459.556 251.267 460.438 252.505 461.648 253.356C462.857 254.206 464.32 254.619 465.795 254.526C467.271 254.432 468.67 253.838 469.762 252.842C472.486 250.317 475.071 247.646 477.505 244.84C479.974 242.066 482.292 239.144 484.457 236.073C485.556 234.53 486.605 232.924 487.643 231.257C488.72 229.562 489.705 227.811 490.594 226.009C491.594 224.045 492.46 222.015 493.187 219.934C494.135 217.269 494.668 214.475 494.768 211.648C494.799 210.335 494.551 209.03 494.039 207.82Z" fill="#FFC3BD"/>
<path d="M454.944 158.946C471.602 161.799 482.456 184.346 482.456 184.346L462.378 205.943C462.378 205.943 450.808 194.163 443.856 183.247C436.36 171.368 443.016 156.921 454.944 158.946Z" fill="#232323"/>
<path d="M424.519 123.396C421.728 118.716 420.814 112.282 425.927 105.725C424.931 105.85 423.92 105.683 423.017 105.245C422.114 104.807 421.357 104.116 420.839 103.256C426.437 98.676 433.476 96.2262 440.707 96.3408C455.649 96.3408 456.76 102.107 456.254 106.046C466.478 106.701 473.936 133.287 448.018 137.991C433.187 122.371 424.519 123.396 424.519 123.396Z" fill="#232323"/>
<path d="M455.315 106.528C455.315 106.528 459.476 102.28 454.302 97.1434C455.462 97.4615 456.52 98.0745 457.373 98.9228C458.225 99.7711 458.844 100.826 459.168 101.984C459.896 104.972 457.883 107.368 455.315 106.528Z" fill="#232323"/>
<path d="M449.585 134.744C449.19 142.931 448.449 152.241 449.82 158.773C447.696 162.12 442.263 165.972 432.532 166.837C429.075 164.873 424.506 160.07 426.099 157.6C430.236 154.945 431.989 146.907 430.804 140.893L449.585 134.744Z" fill="#FFC3BD"/>
<path opacity="0.2" d="M444.843 136.287L430.779 140.893C431.257 143.454 431.278 146.08 430.841 148.648C435.039 148.512 440.855 145.351 443.041 142.387C443.753 141.554 444.281 140.58 444.592 139.529C444.902 138.478 444.988 137.374 444.843 136.287Z" fill="black"/>
<path d="M453.685 121.778C451.08 131.817 450.067 137.831 443.918 142.042C434.669 148.376 423.037 141.276 422.58 130.669C422.185 121.111 426.507 106.293 437.25 104.182C439.615 103.708 442.063 103.846 444.36 104.584C446.657 105.321 448.727 106.634 450.374 108.397C452.021 110.16 453.189 112.315 453.769 114.657C454.349 116.999 454.32 119.45 453.685 121.778Z" fill="#FFC3BD"/>
<path d="M451.61 107.405C447.202 110.541 441.732 123.828 452.845 129.162C462.823 120.395 460.242 107.405 451.61 107.405Z" fill="#232323"/>
<path d="M454.154 108.998C456.043 100.255 433.977 95.7357 426.988 105.948C424.617 112.097 452.821 117.53 454.154 108.998Z" fill="#232323"/>
<path d="M437.694 132.435C435.401 131.398 432.943 130.775 430.433 130.595C430.398 130.595 430.363 130.602 430.331 130.616C430.299 130.629 430.27 130.65 430.245 130.675C430.221 130.7 430.202 130.73 430.19 130.763C430.178 130.796 430.172 130.831 430.174 130.866C430.188 130.946 430.228 131.019 430.289 131.073C430.349 131.127 430.426 131.158 430.507 131.163C432.913 131.337 435.27 131.93 437.472 132.916C437.541 132.947 437.619 132.949 437.69 132.924C437.761 132.899 437.82 132.847 437.854 132.78C437.868 132.747 437.875 132.712 437.874 132.676C437.873 132.64 437.865 132.605 437.85 132.572C437.835 132.54 437.813 132.511 437.786 132.487C437.76 132.463 437.728 132.446 437.694 132.435Z" fill="#232323"/>
<path d="M456.093 132.756C454.304 134.655 451.835 135.769 449.227 135.855C445.77 135.929 444.893 132.632 446.56 129.817C448.067 127.347 451.672 124.186 454.809 125.446C457.945 126.705 458.266 130.397 456.093 132.756Z" fill="#FFC3BD"/>
<path d="M437.719 121.605C437.558 122.433 436.99 123.025 436.484 122.914C435.978 122.803 435.644 122.05 435.805 121.222C435.965 120.395 436.533 119.815 437.04 119.988C437.546 120.16 437.879 120.741 437.719 121.605Z" fill="#232323"/>
<path d="M428.371 119.79C428.211 120.617 427.643 121.198 427.136 121.099C426.63 121 426.284 120.235 426.445 119.407C426.605 118.58 427.173 117.987 427.68 118.098C428.186 118.209 428.482 118.963 428.371 119.79Z" fill="#232323"/>
<path d="M431.261 120.741C429.779 123.078 427.985 125.201 425.927 127.051C427.161 128.693 429.89 128.372 429.89 128.372L431.261 120.741Z" fill="#ED847E"/>
<path d="M436.373 116.802C436.461 116.782 436.552 116.786 436.639 116.812C436.725 116.838 436.804 116.885 436.867 116.95C437.263 117.429 437.767 117.808 438.338 118.054C438.909 118.301 439.53 118.409 440.151 118.37C440.282 118.352 440.414 118.386 440.52 118.464C440.627 118.543 440.698 118.66 440.719 118.79C440.73 118.854 440.727 118.92 440.711 118.983C440.696 119.046 440.667 119.105 440.628 119.157C440.589 119.209 440.539 119.253 440.483 119.285C440.426 119.317 440.364 119.338 440.299 119.345C439.515 119.409 438.727 119.283 438.002 118.981C437.276 118.678 436.632 118.206 436.126 117.604C436.079 117.559 436.042 117.506 436.017 117.446C435.992 117.387 435.979 117.323 435.979 117.259C435.979 117.194 435.992 117.13 436.017 117.071C436.042 117.011 436.079 116.958 436.126 116.913C436.199 116.858 436.283 116.82 436.373 116.802Z" fill="#232323"/>
<path d="M425.482 114.06C425.379 114.039 425.287 113.982 425.222 113.9C425.181 113.848 425.15 113.789 425.132 113.726C425.114 113.662 425.108 113.595 425.116 113.53C425.125 113.464 425.146 113.401 425.179 113.343C425.212 113.286 425.256 113.236 425.309 113.196C425.915 112.699 426.631 112.354 427.398 112.188C428.164 112.023 428.959 112.042 429.717 112.245C429.842 112.288 429.946 112.377 430.006 112.495C430.066 112.612 430.077 112.749 430.038 112.875C429.989 112.994 429.897 113.091 429.781 113.148C429.665 113.205 429.533 113.218 429.408 113.184C428.805 113.03 428.173 113.021 427.566 113.159C426.958 113.296 426.392 113.575 425.914 113.974C425.856 114.026 425.786 114.061 425.709 114.076C425.633 114.092 425.555 114.086 425.482 114.06Z" fill="#232323"/>
<path d="M465.341 244.914L454.734 244.84L460.217 257.016C460.217 257.016 469.268 255.077 468.774 250.162L465.341 244.914Z" fill="#FFC3BD"/>
<path d="M449.339 253.2L451.08 256.633C451.548 257.547 452.34 258.253 453.301 258.614C454.263 258.975 455.324 258.964 456.278 258.584L460.217 257.016L454.735 244.84L450.524 248.051C449.753 248.633 449.211 249.468 448.995 250.41C448.778 251.351 448.9 252.339 449.339 253.2Z" fill="#FFC3BD"/>
<path d="M384.597 235.95C383.315 235.936 382.066 235.549 381.001 234.836C379.936 234.123 379.103 233.114 378.604 231.934C378.104 230.754 377.96 229.454 378.189 228.193C378.418 226.932 379.01 225.765 379.892 224.836C384.609 219.971 388.869 216.192 392.623 212.895C401.687 204.906 404.811 201.782 404.514 195.793C404.071 192.098 403.285 188.452 402.168 184.902C399.464 174.962 396.402 163.713 401.65 154.686C404.465 149.833 409.244 146.511 415.862 144.807C417.536 144.41 419.298 144.685 420.771 145.573C422.244 146.461 423.31 147.891 423.74 149.557C424.17 151.222 423.93 152.989 423.071 154.479C422.212 155.969 420.803 157.063 419.147 157.526C414.492 158.761 413.368 160.65 412.973 161.292C410.503 165.552 412.886 174.369 414.813 181.445C416.208 185.906 417.143 190.499 417.603 195.151C418.221 207.808 410.75 214.402 401.279 222.749C397.711 225.91 393.648 229.491 389.277 233.986C388.667 234.609 387.939 235.104 387.135 235.441C386.331 235.778 385.468 235.951 384.597 235.95Z" fill="#FF4343"/>
<path d="M399.007 141.609L409.281 138.979L406.886 152.118C406.886 152.118 397.637 152.402 396.945 147.524L399.007 141.609Z" fill="#FFC3BD"/>
<path d="M416.493 145.944L415.702 149.376C415.46 150.425 414.833 151.345 413.947 151.955C413.06 152.565 411.977 152.821 410.911 152.673L406.886 152.118L409.281 138.979L413.998 141.017C414.925 141.416 415.683 142.128 416.138 143.028C416.594 143.928 416.72 144.96 416.493 145.944Z" fill="#FFC3BD"/>
<path d="M380.924 214.344L380.644 214.064C379.395 212.815 377.37 212.816 376.122 214.065L339.709 250.49C338.46 251.74 338.46 253.765 339.71 255.013L339.989 255.293C341.238 256.541 343.263 256.541 344.512 255.292L380.925 218.866C382.173 217.617 382.173 215.592 380.924 214.344Z" fill="#232323"/>
<path d="M399.902 233.297L399.622 233.017C398.373 231.768 396.348 231.768 395.099 233.017L358.68 269.437C357.431 270.686 357.431 272.71 358.68 273.959L358.96 274.239C360.209 275.488 362.234 275.488 363.483 274.239L399.902 237.82C401.151 236.571 401.151 234.546 399.902 233.297Z" fill="#232323"/>
<path d="M351.198 227.902L376.86 202.241C377.682 201.418 378.658 200.766 379.732 200.321C380.806 199.876 381.957 199.647 383.12 199.647C384.283 199.647 385.434 199.876 386.508 200.321C387.582 200.766 388.558 201.418 389.381 202.241L411.812 224.672C412.634 225.494 413.286 226.47 413.731 227.544C414.176 228.618 414.405 229.77 414.405 230.932C414.405 232.095 414.176 233.246 413.731 234.32C413.286 235.395 412.634 236.371 411.812 237.193L386.15 262.855L351.198 227.902Z" fill="#FF4343"/>
<path opacity="0.7" d="M351.198 227.902L376.86 202.241C377.682 201.418 378.658 200.766 379.732 200.321C380.806 199.876 381.957 199.647 383.12 199.647C384.283 199.647 385.434 199.876 386.508 200.321C387.582 200.766 388.558 201.418 389.381 202.241L411.812 224.672C412.634 225.494 413.286 226.47 413.731 227.544C414.176 228.618 414.405 229.77 414.405 230.932C414.405 232.095 414.176 233.246 413.731 234.32C413.286 235.395 412.634 236.371 411.812 237.193L386.15 262.855L351.198 227.902Z" fill="white"/>
<path opacity="0.2" d="M360.049 218.983L351.158 227.862L386.116 262.819L394.994 253.929C394.641 252.895 394.054 251.957 393.278 251.187L362.79 220.761C362.027 219.963 361.089 219.354 360.049 218.983Z" fill="#FF4343"/>
<path d="M349.659 223.384L349.021 224.022C346.311 226.732 346.311 231.126 349.021 233.836L380.149 264.964C382.859 267.674 387.253 267.674 389.963 264.964L390.601 264.326C393.311 261.616 393.311 257.222 390.601 254.512L359.473 223.384C356.763 220.674 352.369 220.674 349.659 223.384Z" fill="#FF4343"/>
<path d="M446.413 0.913757H170.998C165.256 0.913757 160.601 5.56874 160.601 11.311V61.5435C160.601 67.2857 165.256 71.9407 170.998 71.9407H446.413C452.155 71.9407 456.81 67.2857 456.81 61.5435V11.311C456.81 5.56874 452.155 0.913757 446.413 0.913757Z" fill="white"/>
<path d="M446.413 72.8544H171.048C168.049 72.8512 165.174 71.6584 163.053 69.5379C160.933 67.4174 159.74 64.5423 159.737 61.5435V11.311C159.74 8.31211 160.933 5.43702 163.053 3.31651C165.174 1.19601 168.049 0.0032685 171.048 0H446.413C449.411 0.0032685 452.287 1.19601 454.407 3.31651C456.528 5.43702 457.72 8.31211 457.724 11.311V61.5435C457.72 64.5423 456.528 67.4174 454.407 69.5379C452.287 71.6584 449.411 72.8512 446.413 72.8544ZM171.048 1.82753C168.533 1.8308 166.123 2.83099 164.345 4.60877C162.568 6.38655 161.567 8.7968 161.564 11.311V61.5435C161.567 64.0576 162.568 66.4679 164.345 68.2457C166.123 70.0234 168.533 71.0236 171.048 71.0269H446.413C448.927 71.0236 451.337 70.0234 453.115 68.2457C454.893 66.4679 455.893 64.0576 455.896 61.5435V11.311C455.893 8.7968 454.893 6.38655 453.115 4.60877C451.337 2.83099 448.927 1.8308 446.413 1.82753H171.048Z" fill="#232323"/>
<g opacity="0.4">
<path d="M184.952 48.7754V22.0539H195.028C196.391 22.0283 197.754 22.1108 199.103 22.3008C200.278 22.4704 201.403 22.8916 202.4 23.5356C203.325 24.1951 204.061 25.0848 204.536 26.1164C205.257 27.6474 205.513 29.3563 205.271 31.0311C205.03 32.7059 204.302 34.273 203.178 35.5381C201.737 37.1022 199.128 37.8884 195.349 37.8966H188.484V48.763L184.952 48.7754ZM188.484 34.7602H195.399C197.115 34.9357 198.839 34.4983 200.264 33.5254C200.754 33.0722 201.138 32.5161 201.388 31.8969C201.638 31.2778 201.747 30.6109 201.709 29.9444C201.737 28.9192 201.439 27.9114 200.857 27.0672C200.319 26.2955 199.528 25.7363 198.622 25.4867C197.534 25.2932 196.429 25.2145 195.325 25.252H188.484V34.7602Z" fill="#232323"/>
<path d="M222.071 46.3922C221.03 47.3081 219.845 48.0465 218.564 48.5778C217.406 49.0033 216.18 49.2167 214.946 49.2076C213.162 49.3317 211.397 48.7758 210.007 47.6517C209.451 47.1527 209.01 46.5385 208.716 45.8518C208.421 45.165 208.28 44.4224 208.303 43.6756C208.291 42.7665 208.512 41.8695 208.945 41.0701C209.37 40.3381 209.957 39.713 210.661 39.2426C211.39 38.762 212.19 38.3994 213.032 38.1683C213.993 37.9473 214.966 37.7823 215.946 37.6744C217.929 37.4937 219.89 37.1173 221.799 36.5507C221.799 36.1061 221.799 35.8098 221.799 35.6986C221.854 35.1886 221.8 34.6727 221.64 34.1851C221.481 33.6976 221.219 33.2496 220.873 32.8709C219.813 32.0648 218.497 31.67 217.169 31.7596C215.973 31.6729 214.78 31.9529 213.748 32.5622C212.898 33.3118 212.324 34.3249 212.118 35.4393L208.908 34.9948C209.129 33.7917 209.623 32.6553 210.352 31.6731C211.117 30.7629 212.123 30.0867 213.254 29.7221C214.669 29.2427 216.157 29.0129 217.65 29.043C219.016 28.9962 220.379 29.1927 221.676 29.6233C222.521 29.8633 223.28 30.3393 223.864 30.9955C224.448 31.6516 224.832 32.4607 224.973 33.3278C225.109 34.3301 225.163 35.342 225.133 36.3531V40.7244C225.085 42.6573 225.155 44.5913 225.343 46.5157C225.492 47.3289 225.772 48.1128 226.17 48.8371H222.75C222.374 48.0711 222.144 47.2421 222.071 46.3922ZM221.799 39.0573C220.068 39.6783 218.269 40.0928 216.44 40.2922C215.462 40.3971 214.5 40.621 213.575 40.959C213.046 41.1738 212.594 41.5441 212.279 42.0209C211.915 42.6024 211.77 43.2944 211.869 43.973C211.969 44.6517 212.306 45.2729 212.822 45.7254C213.647 46.3677 214.681 46.6802 215.724 46.6021C216.9 46.6247 218.062 46.3395 219.095 45.7748C220.039 45.2632 220.799 44.4686 221.268 43.5027C221.672 42.4611 221.853 41.3463 221.799 40.2304V39.0573Z" fill="#232323"/>
<path d="M229.604 50.3559L232.789 50.8252C232.818 51.2403 232.931 51.6453 233.122 52.0149C233.313 52.3845 233.578 52.7108 233.901 52.9738C234.882 53.6357 236.053 53.9568 237.235 53.8875C238.476 53.9686 239.709 53.6483 240.754 52.9738C241.592 52.3466 242.186 51.4472 242.433 50.43C242.654 49.038 242.733 47.6272 242.668 46.2193C242.02 47.0103 241.201 47.6437 240.273 48.0715C239.344 48.4994 238.331 48.7105 237.309 48.6889C236.123 48.7476 234.941 48.5163 233.866 48.0149C232.79 47.5135 231.852 46.7573 231.135 45.8118C229.649 43.8176 228.875 41.3828 228.937 38.8968C228.918 37.1411 229.263 35.4005 229.949 33.7846C230.539 32.3194 231.549 31.0608 232.851 30.1666C234.186 29.312 235.749 28.8816 237.334 28.9318C238.425 28.9173 239.505 29.1602 240.486 29.6407C241.466 30.1213 242.319 30.826 242.977 31.6978V29.364H246.002V46.1452C246.136 48.3213 245.825 50.5019 245.088 52.5539C244.453 53.8341 243.428 54.8801 242.162 55.5422C240.635 56.3189 238.935 56.693 237.222 56.6288C235.235 56.7232 233.27 56.1779 231.616 55.073C230.906 54.5238 230.348 53.802 229.996 52.9763C229.644 52.1507 229.509 51.2486 229.604 50.3559ZM232.308 38.7239C232.139 40.6977 232.677 42.6673 233.827 44.2806C234.285 44.8401 234.864 45.2885 235.521 45.5922C236.178 45.8959 236.894 46.0469 237.618 46.0341C238.339 46.044 239.054 45.8928 239.71 45.5916C240.365 45.2905 240.946 44.8468 241.408 44.293C242.561 42.718 243.104 40.7795 242.94 38.8351C243.086 36.9155 242.524 35.0087 241.359 33.4759C240.904 32.9095 240.326 32.4531 239.67 32.141C239.013 31.8288 238.295 31.6689 237.568 31.6731C236.857 31.6709 236.154 31.8297 235.512 32.1376C234.871 32.4455 234.307 32.8946 233.864 33.4512C232.721 34.9705 232.168 36.8527 232.308 38.7486V38.7239Z" fill="#232323"/>
<path d="M264.252 42.5395L267.648 42.9594C267.203 44.7893 266.155 46.4161 264.672 47.5776C263.054 48.7172 261.105 49.2902 259.128 49.2076C257.883 49.2827 256.637 49.0938 255.471 48.6532C254.305 48.2127 253.245 47.5305 252.361 46.6515C250.605 44.6215 249.718 41.9826 249.891 39.3043C249.707 36.5533 250.592 33.8375 252.361 31.7225C253.193 30.835 254.205 30.1356 255.33 29.6713C256.454 29.207 257.665 28.9886 258.881 29.0306C260.066 28.9895 261.247 29.2042 262.342 29.6602C263.437 30.1162 264.422 30.8027 265.228 31.6731C266.976 33.7319 267.86 36.3863 267.697 39.0821C267.697 39.2796 267.697 39.576 267.697 39.9588H253.262C253.239 41.7702 253.881 43.5274 255.065 44.8981C255.584 45.4487 256.212 45.8839 256.91 46.1754C257.608 46.4669 258.359 46.6081 259.115 46.5898C260.217 46.6175 261.297 46.2835 262.19 45.639C263.176 44.8393 263.896 43.7582 264.252 42.5395ZM253.485 37.2422H264.252C264.224 35.911 263.794 34.6195 263.017 33.5377C262.532 32.9268 261.911 32.437 261.204 32.107C260.497 31.777 259.723 31.6158 258.942 31.6361C258.241 31.6188 257.543 31.7445 256.891 32.0056C256.239 32.2668 255.647 32.6578 255.152 33.1549C254.072 34.2431 253.461 35.7097 253.448 37.2422H253.485Z" fill="#232323"/>
<path d="M282.096 48.7754V29.364H285.047V32.1176C285.708 31.0935 286.626 30.2605 287.709 29.7015C288.792 29.1426 290.003 28.8772 291.221 28.9318C292.327 28.9184 293.424 29.1328 294.444 29.5616C295.314 29.8963 296.074 30.4646 296.642 31.2039C297.152 31.9468 297.501 32.7879 297.667 33.6735C297.808 34.7293 297.866 35.7945 297.84 36.8594V48.763H294.567V36.9952C294.608 35.9806 294.479 34.9664 294.185 33.9946C293.919 33.3323 293.441 32.7766 292.826 32.414C292.13 32.0079 291.335 31.8028 290.53 31.8213C289.199 31.7967 287.908 32.2727 286.912 33.1549C285.899 34.044 285.393 35.7233 285.393 38.2053V48.7754H282.096Z" fill="#232323"/>
<path d="M301.643 39.0944C301.643 35.5134 302.639 32.8586 304.631 31.1298C306.325 29.6866 308.494 28.9213 310.719 28.9812C311.928 28.9368 313.133 29.1469 314.256 29.5978C315.38 30.0488 316.396 30.7306 317.238 31.599C318.129 32.5702 318.815 33.7096 319.259 34.9502C319.702 36.1907 319.892 37.5074 319.819 38.8228C319.911 40.843 319.526 42.8565 318.696 44.7005C317.963 46.1071 316.828 47.2636 315.436 48.0222C314.008 48.8301 312.396 49.2554 310.756 49.257C309.533 49.3153 308.311 49.1132 307.173 48.664C306.034 48.2149 305.003 47.5289 304.149 46.6515C303.256 45.6183 302.574 44.4191 302.144 43.1224C301.714 41.8257 301.543 40.457 301.643 39.0944ZM305.014 39.0944C304.864 41.085 305.439 43.0626 306.631 44.6635C307.132 45.2572 307.758 45.7316 308.465 46.0521C309.173 46.3725 309.942 46.5309 310.719 46.5157C311.492 46.5311 312.26 46.3713 312.963 46.0485C313.667 45.7256 314.288 45.2479 314.781 44.6511C315.992 43.0211 316.571 41.0075 316.411 38.9833C316.555 37.0313 315.97 35.0953 314.769 33.5501C314.261 32.9704 313.636 32.506 312.934 32.1877C312.232 31.8695 311.471 31.7049 310.7 31.7049C309.93 31.7049 309.168 31.8695 308.466 32.1877C307.765 32.506 307.139 32.9704 306.631 33.5501C305.435 35.1401 304.856 37.11 305.001 39.0944H305.014Z" fill="#232323"/>
<path d="M330.784 45.8365L331.266 48.7384C330.455 48.9222 329.627 49.0215 328.796 49.0347C327.841 49.0818 326.889 48.8864 326.03 48.4667C325.42 48.133 324.931 47.6141 324.635 46.9849C324.294 45.7223 324.161 44.4129 324.24 43.1076V31.9942H321.832V29.364H324.24V24.6223L327.5 22.6466V29.364H330.797V31.9201H327.5V43.2434C327.464 43.8497 327.523 44.4577 327.672 45.0463C327.792 45.31 327.99 45.5301 328.241 45.676C328.585 45.8595 328.974 45.945 329.364 45.923C329.839 45.9259 330.313 45.897 330.784 45.8365Z" fill="#232323"/>
<path d="M345.158 48.7754V31.9695H342.256V29.364H345.158V27.3513C345.109 26.3633 345.226 25.3741 345.504 24.4247C345.816 23.5685 346.402 22.8392 347.171 22.3502C348.185 21.7654 349.348 21.4906 350.517 21.5599C351.545 21.5729 352.571 21.6804 353.579 21.881L353.085 24.7458C352.446 24.6259 351.797 24.5639 351.147 24.5606C350.386 24.4895 349.628 24.7201 349.035 25.2027C348.547 25.8959 348.328 26.7429 348.418 27.5859V29.364H352.196V31.9201H348.418V48.7754H345.158Z" fill="#232323"/>
<path d="M353.517 39.0944C353.517 35.5134 354.513 32.8586 356.506 31.1298C358.205 29.6868 360.377 28.9218 362.606 28.9812C363.815 28.9368 365.02 29.1469 366.144 29.5978C367.267 30.0488 368.283 30.7306 369.126 31.599C370.011 32.5722 370.694 33.7125 371.133 34.953C371.571 36.1934 371.758 37.5091 371.682 38.8228C371.777 40.842 371.396 42.8553 370.57 44.7005C369.837 46.1107 368.697 47.268 367.298 48.0222C365.875 48.8301 364.267 49.2555 362.63 49.257C361.408 49.3106 360.188 49.1063 359.05 48.6574C357.912 48.2085 356.881 47.5251 356.024 46.6515C355.13 45.6183 354.449 44.4191 354.019 43.1224C353.589 41.8257 353.418 40.457 353.517 39.0944ZM356.901 39.0944C356.745 41.0857 357.32 43.0656 358.518 44.6635C359.025 45.247 359.651 45.7149 360.354 46.0355C361.057 46.3562 361.821 46.5221 362.593 46.5221C363.366 46.5221 364.13 46.3562 364.833 46.0355C365.536 45.7149 366.162 45.247 366.668 44.6635C367.87 43.0292 368.444 41.0177 368.286 38.9956C368.428 37.0459 367.848 35.1121 366.656 33.5624C366.148 32.9828 365.523 32.5183 364.821 32.2001C364.119 31.8819 363.358 31.7172 362.587 31.7172C361.817 31.7172 361.055 31.8819 360.353 32.2001C359.652 32.5183 359.026 32.9828 358.518 33.5624C357.311 35.1432 356.723 37.1104 356.864 39.0944H356.901Z" fill="#232323"/>
<path d="M388.191 48.7754V45.9353C387.534 46.9685 386.619 47.8132 385.537 48.3868C384.454 48.9604 383.242 49.2432 382.017 49.2076C380.917 49.2211 379.826 48.9979 378.819 48.5531C377.954 48.2103 377.195 47.6435 376.621 46.9108C376.111 46.1696 375.765 45.3274 375.609 44.4412C375.448 43.4287 375.382 42.4035 375.411 41.3788V29.364H378.696V40.107C378.656 41.2631 378.722 42.4204 378.893 43.5645C379.07 44.3792 379.535 45.1028 380.202 45.6019C380.923 46.1113 381.79 46.3715 382.672 46.3428C383.646 46.3432 384.602 46.0786 385.438 45.5772C386.266 45.1172 386.915 44.3904 387.278 43.5151C387.688 42.2995 387.868 41.0181 387.809 39.7365V29.364H391.093V48.7754H388.191Z" fill="#232323"/>
<path d="M396.267 48.7754V29.364H399.218V32.1176C399.879 31.0935 400.797 30.2605 401.88 29.7015C402.963 29.1426 404.174 28.8772 405.392 28.9318C406.498 28.9184 407.595 29.1328 408.615 29.5616C409.485 29.8963 410.245 30.4646 410.813 31.2039C411.323 31.9468 411.672 32.7879 411.838 33.6735C411.979 34.7293 412.037 35.7945 412.011 36.8594V48.763H408.726V36.9952C408.767 35.9806 408.637 34.9664 408.343 33.9946C408.077 33.3323 407.6 32.7766 406.985 32.414C406.289 32.0079 405.494 31.8028 404.688 31.8213C403.358 31.7992 402.068 32.2748 401.07 33.1549C400.057 34.044 399.551 35.7233 399.551 38.2053V48.7754H396.267Z" fill="#232323"/>
<path d="M429.595 48.7754V46.3058C429.033 47.2279 428.233 47.9817 427.279 48.4879C426.325 48.9942 425.253 49.2342 424.174 49.1829C422.667 49.2042 421.188 48.7742 419.926 47.9481C418.605 47.0669 417.561 45.8296 416.914 44.3795C416.18 42.7289 415.817 40.9374 415.852 39.1315C415.826 37.3319 416.153 35.5448 416.815 33.8711C417.374 32.3882 418.391 31.1214 419.717 30.2531C421.003 29.4225 422.507 28.9927 424.038 29.0183C425.122 28.9993 426.192 29.2542 427.15 29.7592C428.031 30.2141 428.792 30.8697 429.373 31.6731V22.0539H432.633V48.7754H429.595ZM419.223 39.1191C419.073 41.0984 419.629 43.0667 420.791 44.6758C421.229 45.2424 421.79 45.7023 422.432 46.021C423.074 46.3396 423.779 46.5088 424.495 46.5157C425.207 46.5231 425.91 46.3678 426.552 46.0618C427.194 45.7557 427.758 45.307 428.2 44.7499C429.316 43.1964 429.845 41.2976 429.694 39.3908C429.863 37.3264 429.323 35.266 428.163 33.5501C427.722 32.9702 427.152 32.5009 426.498 32.1794C425.845 31.8579 425.125 31.693 424.397 31.6978C423.683 31.6834 422.976 31.8368 422.332 32.1456C421.689 32.4545 421.127 32.9102 420.692 33.476C419.575 35.1351 419.056 37.1257 419.223 39.1191Z" fill="#232323"/>
</g>
<path d="M308.706 108.43C321.35 108.43 331.599 98.1798 331.599 85.536C331.599 72.8923 321.35 62.6425 308.706 62.6425C296.062 62.6425 285.812 72.8923 285.812 85.536C285.812 98.1798 296.062 108.43 308.706 108.43Z" fill="#232323"/>
<path d="M308.705 105.022C319.467 105.022 328.191 96.2976 328.191 85.5361C328.191 74.7745 319.467 66.0506 308.705 66.0506C297.944 66.0506 289.22 74.7745 289.22 85.5361C289.22 96.2976 297.944 105.022 308.705 105.022Z" fill="white"/>
<path d="M321.881 81.3376H312.743L320.412 58.654L295.53 89.7344H304.668L296.999 112.418L321.881 81.3376Z" fill="#FF4343"/>
<path d="M322.662 102.209L325.387 99.4851L294.748 68.8463L292.024 71.5705L322.662 102.209Z" fill="#232323"/>
</svg>
